# xmcd CD database file
#
# Track frame offsets:
#	150
#	20575
#	43155
#
# Disc length: 843 seconds
#
# Revision: 0
# Processed by: cddbd v1.5.1PL0 Copyright (c) Steve Scherf et al.
# Submitted via: CDex 1.51
#
DISCID=20034903
DTITLE=マグースイム - いつのまにか
DYEAR=1998
DGENRE=JPop
TTITLE0=いつのまにか
TTITLE1=雨だれ小僧
TTITLE2=惡い季節
EXTD=YEAR: 1998
EXTT0=
EXTT1=
EXTT2=
PLAYORDER=
